{"title":"Lucky.Number.Slevin.2006.720p.BRRip.x264.aac.mp4-anoXmous","uid":6813548,"size":731440027,"categoryP":"video","categoryS":"hd___movies","magnet":"?xt=urn:btih:45d635754420e949b01d329f771059ef023116cc&amp;dn=Lucky.Number.Slevin.2006.720p.BRRip.x264.aac.mp4-anoXmous&amp;tr=udp%3A%2F%2Ftracker.openbittorrent.com%3A80&amp;tr=udp%3A%2F%2Fopen.demonii.com%3A1337&amp;tr=udp%3A%2F%2Ftracker.coppersurfer.tk%3A6969&amp;tr=udp%3A%2F%2Fexodus.desync.com%3A6969","seeders":0,"leechers":1,"uploader":"anoXmous","files":-1,"time":1321116252,"description":"Lucky.Number.Slevin.2006.720p.BRRip.x264.aac.mp4-anoXmous\n\nFormat                           : MPEG-4\nFormat profile                   : Base Media\nCodec ID                         : isom\nFile size                        : 697 MiB\nDuration                         : 1h 50mn\nOverall bit rate mode            : Variable\nOverall bit rate                 : 885 Kbps\n\n\nVideo\nID                               : 1\nFormat                           : AVC\nFormat/Info                      : Advanced Video Codec\nFormat profile                   : &lt;a class=&quot;__cf_email__&quot; href=&quot;/cdn-cgi/l/email-protection&quot; data-cfemail=&quot;81c9e8e6e9c1cdb5afb0&quot;&gt;[email&amp;#160;protected]&lt;/a&gt;&lt;script cf-hash='f9e31' type=&quot;text/javascript&quot;&gt;\n/* &lt;![CDATA[ */!function(){try{var t=&quot;currentScript&quot;in document?document.currentScript:function(){for(var t=document.getElementsByTagName(&quot;script&quot;),e=t.length;e--;)if(t[e].getAttribute(&quot;cf-hash&quot;))return t[e]}();if(t&amp;&amp;t.previousSibling){var e,r,n,i,c=t.previousSibling,a=c.getAttribute(&quot;data-cfemail&quot;);if(a){for(e=&quot;&quot;,r=parseInt(a.substr(0,2),16),n=2;a.length-n;n+=2)i=parseInt(a.substr(n,2),16)^r,e+=String.fromCharCode(i);e=document.createTextNode(e),c.parentNode.replaceChild(e,c)}}}catch(u){}}();/* ]]&gt; */&lt;/script&gt;\nFormat settings, CABAC           : Yes\nFormat settings, ReFrames        : 4 frames\nCodec ID                         : avc1\nCodec ID/Info                    : Advanced Video Coding\nDuration                         : 1h 50mn\nBit rate                         : 821 Kbps\nMaximum bit rate                 : 6 146 Kbps\nWidth                            : 1 280 pixels\nHeight                           : 544 pixels\nDisplay aspect ratio             : 2.35:1\nFrame rate mode                  : Constant\nFrame rate                       : 23.976 fps\nColor space                      : YUV\nChroma subsampling               : 4:2:0\nBit depth                        : 8 bits\nScan type                        : Progressive\nBits/(Pixel*Frame)               : 0.049\nStream size                      : 646 MiB (93%)\nWriting library                  : x264 core 119 r2106 07efeb4\n\nAudio\nID                               : 2\nFormat                           : AAC\nFormat/Info                      : Advanced Audio Codec\nFormat profile                   : HE-AAC / LC\nCodec ID                         : 40\nDuration                         : 1h 50mn\nBit rate mode                    : Variable\nBit rate                         : 62.3 Kbps\nMaximum bit rate                 : 78.7 Kbps\nChannel(s)                       : 2 channels\nChannel positions                : Front: L R\nSampling rate                    : 48.0 KHz / 24.0 KHz\nCompression mode                 : Lossy\nStream size                      : 49.1 MiB (7%)\nLanguage                         : English\n\n                                SUB !\n\nLucky.Number.Slevin.2006.720p.BRRip.x264.aac.mp4-anoXmous_swe.srt\n &lt;a href=&quot;\nhttp://www.imdb.com/title/tt0425210/&quot; rel=&quot;nofollow&quot; target=&quot;_NEW&quot;&gt;\nhttp://www.imdb.com/title/tt0425210/&lt;/a&gt;\n\n______This 1 should work very fine with PSP and XBOX_____ ","torrent":{"xt":"urn:btih:45d635754420e949b01d329f771059ef023116cc","amp;dn":"Lucky.Number.Slevin.2006.720p.BRRip.x264.aac.mp4-anoXmous","amp;tr":["udp%3A%2F%2Ftracker.openbittorrent.com%3A80","udp%3A%2F%2Fopen.demonii.com%3A1337","udp%3A%2F%2Ftracker.coppersurfer.tk%3A6969","udp%3A%2F%2Fexodus.desync.com%3A6969"],"infoHash":"45d635754420e949b01d329f771059ef023116cc","infoHashBuffer":{"type":"Buffer","data":[69,214,53,117,68,32,233,73,176,29,50,159,119,16,89,239,2,49,22,204]},"announce":[],"urlList":[]}}